<svg width="55" height="37" viewBox="0 0 55 37" fill="none" xmlns="http://www.w3.org/2000/svg">
<path d="M10.5 1.11307L10.5 19.511C10.5 20.1197 11.0389 20.5876 11.6309 20.4461C15.316 19.5654 21 16.6447 21 10.1443C21 3.62507 15.283 0.910819 11.5989 0.1713C11.016 0.0542936 10.5 0.518542 10.5 1.11307Z" fill="#1E295D"/>
<path d="M2.52026 33.3297H0.65C0.291015 33.3297 0 33.0387 0 32.6797V7.40761C0 7.19775 0 7.09281 0.0237827 6.98572C0.0475654 6.87863 0.0880457 6.79198 0.169006 6.61869C1.58823 3.58093 3.97713 1.34556 5.37294 0.326758C5.58137 0.17463 5.68558 0.0985657 5.83669 0.0492828C5.9878 0 6.13515 0 6.42983 0H7.1C8.04281 0 8.51421 0 8.80711 0.292893C9.1 0.585786 9.1 1.05719 9.1 2V25.1547C9.1 25.3355 9.1 25.4258 9.08284 25.5173C9.06568 25.6087 9.03485 25.6879 8.97319 25.8464C7.2985 30.1506 4.69309 32.3908 3.28763 33.1534C3.14652 33.2299 3.07597 33.2682 2.95489 33.2989C2.83381 33.3297 2.72929 33.3297 2.52026 33.3297Z" fill="#F26622"/>
<path d="M23.9627 20.024C26.8907 20.024 28.3547 21.56 28.3547 24.632V31.16C28.3547 31.448 28.2667 31.68 28.0907 31.856C27.9307 32.032 27.7067 32.12 27.4187 32.12C27.1307 32.12 26.8987 32.032 26.7227 31.856C26.5467 31.68 26.4587 31.448 26.4587 31.16V30.008C26.1547 30.696 25.6907 31.232 25.0667 31.616C24.4427 31.984 23.7227 32.168 22.9067 32.168C22.1547 32.168 21.4587 32.016 20.8187 31.712C20.1947 31.408 19.6987 30.984 19.3307 30.44C18.9627 29.896 18.7787 29.296 18.7787 28.64C18.7787 27.76 19.0027 27.08 19.4507 26.6C19.8987 26.104 20.6347 25.752 21.6587 25.544C22.6827 25.32 24.1067 25.208 25.9307 25.208H26.4587V24.416C26.4587 23.456 26.2587 22.752 25.8587 22.304C25.4747 21.856 24.8427 21.632 23.9627 21.632C22.8747 21.632 21.7707 21.928 20.6507 22.52C20.2187 22.792 19.9147 22.928 19.7387 22.928C19.5467 22.928 19.3867 22.856 19.2587 22.712C19.1307 22.568 19.0667 22.384 19.0667 22.16C19.0667 21.936 19.1307 21.744 19.2587 21.584C19.4027 21.408 19.6267 21.232 19.9307 21.056C20.4907 20.736 21.1227 20.488 21.8267 20.312C22.5467 20.12 23.2587 20.024 23.9627 20.024ZM23.1707 30.632C24.1307 30.632 24.9147 30.312 25.5227 29.672C26.1467 29.016 26.4587 28.176 26.4587 27.152V26.456H26.0267C24.6187 26.456 23.5467 26.52 22.8107 26.648C22.0747 26.76 21.5467 26.96 21.2267 27.248C20.9227 27.52 20.7707 27.928 20.7707 28.472C20.7707 29.096 20.9947 29.616 21.4427 30.032C21.9067 30.432 22.4827 30.632 23.1707 30.632ZM40.3373 20.672C40.5133 20.288 40.7933 20.096 41.1773 20.096C41.4173 20.096 41.6333 20.176 41.8253 20.336C42.0173 20.496 42.1133 20.696 42.1133 20.936C42.1133 21.08 42.0813 21.208 42.0173 21.32L35.2733 35.864C35.1933 36.04 35.0733 36.176 34.9133 36.272C34.7693 36.368 34.6173 36.416 34.4573 36.416C34.2173 36.416 34.0013 36.336 33.8093 36.176C33.6333 36.032 33.5453 35.84 33.5453 35.6C33.5453 35.472 33.5773 35.344 33.6413 35.216L35.3213 31.592L30.5693 21.32C30.5053 21.208 30.4733 21.088 30.4733 20.96C30.4733 20.72 30.5773 20.512 30.7853 20.336C31.0093 20.16 31.2493 20.072 31.5053 20.072C31.6653 20.072 31.8173 20.12 31.9613 20.216C32.1213 20.312 32.2413 20.448 32.3213 20.624L36.3293 29.624L40.3373 20.672ZM48.9488 32.168C47.8448 32.168 46.8688 31.92 46.0208 31.424C45.1888 30.928 44.5408 30.224 44.0768 29.312C43.6288 28.384 43.4048 27.312 43.4048 26.096C43.4048 24.88 43.6288 23.816 44.0768 22.904C44.5408 21.976 45.1888 21.264 46.0208 20.768C46.8688 20.272 47.8448 20.024 48.9488 20.024C50.0528 20.024 51.0288 20.272 51.8768 20.768C52.7248 21.264 53.3728 21.976 53.8208 22.904C54.2848 23.816 54.5168 24.88 54.5168 26.096C54.5168 27.312 54.2848 28.384 53.8208 29.312C53.3728 30.224 52.7248 30.928 51.8768 31.424C51.0288 31.92 50.0528 32.168 48.9488 32.168ZM48.9488 30.56C50.1008 30.56 50.9808 30.184 51.5888 29.432C52.2128 28.664 52.5248 27.552 52.5248 26.096C52.5248 24.672 52.2128 23.576 51.5888 22.808C50.9648 22.024 50.0848 21.632 48.9488 21.632C47.8128 21.632 46.9328 22.024 46.3088 22.808C45.6848 23.576 45.3728 24.672 45.3728 26.096C45.3728 27.536 45.6768 28.64 46.2848 29.408C46.9088 30.176 47.7968 30.56 48.9488 30.56Z" fill="#1E295D"/>
</svg>
