<svg width="55" height="34" fill="none" xmlns="http://www.w3.org/2000/svg"><path d="M10.0003 1.11906V18.0585c0 .6115.5432 1.0798 1.1346.9243 3.2658-.8588 8.1654-3.583 8.1654-9.54753 0-5.98501-4.9333-8.522089-8.199-9.248259-.5825-.12951-1.101.335403-1.101.932049z" fill="#2E52FC"/><path d="M2.86759 31H1.27591c-.317959 0-.575715-.2578-.575715-.5757V6.90049c0-.20085 0-.30127.021932-.40426.021932-.10298.059069-.18622.133343-.3527C2.09107 3.374 4.1507 1.32322 5.39323.354824c.21063-.164165.31595-.246248.47392-.300536C6.02512 0 6.17866 0 6.48574 0h.27446c.9428 0 1.41421 0 1.7071.292893.2929.292893.2929.764297.2929 1.707107v21.3876c0 .1727 0 .2591-.01575.3468-.01575.0876-.04394.1636-.10032.3155h-.00001c-1.46232 3.9399-3.7228 6.0179-4.97828 6.755-.14194.0834-.21291.125-.34175.1601-.12884.035-.23806.035-.4565.035z" fill="#F46C2A"/><path d="M23.9627 17.024c2.928 0 4.392 1.536 4.392 4.608v6.528c0 .288-.088.52-.264.696-.16.176-.384.264-.672.264-.288 0-.52-.088-.696-.264-.176-.176-.264-.408-.264-.696v-1.152c-.304.688-.768 1.224-1.392 1.608-.624.368-1.344.552-2.16.552-.752 0-1.448-.152-2.088-.456-.624-.304-1.12-.728-1.488-1.272-.368-.544-.552-1.144-.552-1.8 0-.88.224-1.56.672-2.04.448-.496 1.184-.848 2.208-1.056 1.024-.224 2.448-.336 4.272-.336h.528v-.792c0-.96-.2-1.664-.6-2.112-.384-.448-1.016-.672-1.896-.672-1.088 0-2.192.296-3.312.888-.432.272-.736.408-.912.408-.192 0-.352-.072-.48-.216-.128-.144-.192-.328-.192-.552 0-.224.064-.416.192-.576.144-.176.368-.352.672-.528.56-.32 1.192-.568 1.896-.744.72-.192 1.432-.288 2.136-.288zm-.792 10.608c.96 0 1.744-.32 2.352-.96.624-.656.936-1.496.936-2.52v-.696h-.432c-1.408 0-2.48.064-3.216.192-.736.112-1.264.312-1.584.6-.304.272-.456.68-.456 1.224 0 .624.224 1.144.672 1.56.464.4 1.04.6 1.728.6zm17.1666-9.96c.176-.384.456-.576.84-.576.24 0 .456.08.648.24.192.16.288.36.288.6 0 .144-.032.272-.096.384l-6.744 14.544c-.08.176-.2.312-.36.408-.144.096-.296.144-.456.144-.24 0-.456-.08-.648-.24-.176-.144-.264-.336-.264-.576 0-.128.032-.256.096-.384l1.68-3.624-4.752-10.272c-.064-.112-.096-.232-.096-.36 0-.24.104-.448.312-.624.224-.176.464-.264.72-.264.16 0 .312.048.456.144.16.096.28.232.36.408l4.008 9 4.008-8.952zm8.6115 11.496c-1.104 0-2.08-.248-2.928-.744-.832-.496-1.48-1.2-1.944-2.112-.448-.928-.672-2-.672-3.216 0-1.216.224-2.28.672-3.192.464-.928 1.112-1.64 1.944-2.136.848-.496 1.824-.744 2.928-.744 1.104 0 2.08.248 2.928.744.848.496 1.496 1.208 1.944 2.136.464.912.696 1.976.696 3.192 0 1.216-.232 2.288-.696 3.216-.448.912-1.096 1.616-1.944 2.112-.848.496-1.824.744-2.928.744zm0-1.608c1.152 0 2.032-.376 2.64-1.128.624-.768.936-1.88.936-3.336 0-1.424-.312-2.52-.936-3.288-.624-.784-1.504-1.176-2.64-1.176-1.136 0-2.016.392-2.64 1.176-.624.768-.936 1.864-.936 3.288 0 1.44.304 2.544.912 3.312.624.768 1.512 1.152 2.664 1.152z" fill="#FEFEFF" fill-opacity=".82"/></svg>