<svg width="89" height="64" fill="none" xmlns="http://www.w3.org/2000/svg"><path d="M15 1.12v28.72a.95.95 0 001.14.95C21.37 29.62 30 25.27 30 15.22 30 5.14 21.34 1.12 16.1.17a.95.95 0 00-1.1.95z" fill="#1E295D"/><path d="M3.76 50H.93a.93.93 0 01-.93-.93V10.9c0-.2 0-.3.02-.4.02-.1.06-.19.13-.36A25.7 25.7 0 017.87.35c.22-.17.33-.25.48-.3.15-.05.3-.05.61-.05H11c.94 0 1.41 0 1.7.3.3.29.3.76.3 1.7v35.93c0 .17 0 .26-.02.34-.01.09-.04.17-.1.32-2.44 6.73-6.33 10.15-8.32 11.22-.16.09-.24.13-.36.16s-.23.03-.44.03z" fill="#F26622"/><path d="M35.96 30.04c4.88 0 7.32 2.56 7.32 7.68V48.6c0 .48-.15.87-.44 1.16-.27.3-.64.44-1.12.44-.48 0-.87-.15-1.16-.44-.3-.3-.44-.68-.44-1.16v-1.92a5.84 5.84 0 01-2.32 2.68 8 8 0 01-7.08.16 6.21 6.21 0 01-2.48-2.12c-.61-.9-.92-1.9-.92-3 0-1.47.37-2.6 1.12-3.4.75-.83 1.97-1.41 3.68-1.76a35.1 35.1 0 017.12-.56h.88v-1.32c0-1.6-.33-2.77-1-3.52-.64-.75-1.7-1.12-3.16-1.12-1.81 0-3.65.5-5.52 1.48-.72.45-1.23.68-1.52.68-.32 0-.59-.12-.8-.36a1.33 1.33 0 01-.32-.92c0-.37.1-.7.32-.96.24-.3.61-.59 1.12-.88a12.4 12.4 0 013.16-1.24c1.2-.32 2.39-.48 3.56-.48zm-1.32 17.68c1.6 0 2.9-.53 3.92-1.6a5.85 5.85 0 001.56-4.2v-1.16h-.72c-2.35 0-4.13.1-5.36.32a5.1 5.1 0 00-2.64 1c-.5.45-.76 1.13-.76 2.04 0 1.04.37 1.9 1.12 2.6.77.67 1.73 1 2.88 1zm28.61-16.6c.3-.64.76-.96 1.4-.96.4 0 .76.13 1.08.4.32.27.48.6.48 1 0 .24-.05.45-.16.64L54.81 56.44c-.13.3-.33.52-.6.68-.24.16-.5.24-.76.24-.4 0-.76-.13-1.08-.4-.3-.24-.44-.56-.44-.96 0-.21.05-.43.16-.64l2.8-6.04-7.92-17.12a1.2 1.2 0 01-.16-.6c0-.4.17-.75.52-1.04.37-.3.77-.44 1.2-.44.27 0 .52.08.76.24.27.16.47.39.6.68l6.68 15 6.68-14.92zM77.6 50.28a9.49 9.49 0 01-4.88-1.24 8.46 8.46 0 01-3.24-3.52 12.19 12.19 0 01-1.12-5.36c0-2.03.38-3.8 1.12-5.32a8.4 8.4 0 013.24-3.56 9.49 9.49 0 014.88-1.24c1.84 0 3.47.41 4.88 1.24a8.08 8.08 0 013.24 3.56c.78 1.52 1.16 3.3 1.16 5.32 0 2.03-.38 3.81-1.16 5.36a8.13 8.13 0 01-3.24 3.52 9.49 9.49 0 01-4.88 1.24zm0-2.68c1.92 0 3.39-.63 4.4-1.88 1.04-1.28 1.56-3.13 1.56-5.56 0-2.37-.52-4.2-1.56-5.48a5.3 5.3 0 00-4.4-1.96 5.3 5.3 0 00-4.4 1.96c-1.04 1.28-1.56 3.1-1.56 5.48 0 2.4.51 4.24 1.52 5.52a5.4 5.4 0 004.44 1.92z" fill="#1E295D"/></svg>